<svg xmlns="http://www.w3.org/2000/svg" viewBox="0 0 250 250"><defs><style>.cls-1{fill:none;stroke:#000;stroke-miterlimit:10;stroke-width:2.5px;}.cls-2{fill:#020202;}</style></defs><g id="Fitz_Square" data-name="Fitz Square"><line class="cls-1" y1="250" x2="250" y2="250"/><line class="cls-1" y1="-0.86" y2="251.14"/><line class="cls-1" x2="250"/><line class="cls-1" x1="250" y1="-0.86" x2="250" y2="251.14"/><path d="M139,127.39c-2,0-4.09,0-6.13,0-3.61,0-4.45-.81-4.55-4.27a22.66,22.66,0,0,0-17.4-21.5,24.85,24.85,0,0,0-6.93-.8,3.08,3.08,0,0,1-3.54-3.27c-.11-4.71-.14-9.42,0-14.13.08-2.65,2-3.26,4.49-3.27,20-.08,38,13.12,43.21,31.8a44.76,44.76,0,0,1,1.54,11.16c.07,3.23-1,4.25-4.26,4.28C143.26,127.4,141.12,127.39,139,127.39Z"/><path d="M111.1,122.57c2.34,0,4.68,0,7,0s3.63,1.2,3.6,3.49c-.18,13.2,10.9,23.44,24.11,23.07,2.76-.08,3.8,1.48,3.81,3.92,0,4.14,0,8.29,0,12.43,0,3.32-1.16,4.37-4.59,4.37-18.83,0-35.72-11.49-42.1-28.65a43.2,43.2,0,0,1-2.61-14.38c0-3.18,1-4.22,4.33-4.26C106.81,122.55,109,122.57,111.1,122.57Z"/><path class="cls-2" d="M115.05,217.48c-27.78-3.7-50.09-16.63-66.34-39.57-9.42-13.3-14.52-28.25-16.28-44.39a134.56,134.56,0,0,1,0-17C35.85,87.1,49.59,63.9,74.15,47.3c12.36-8.34,26.18-12.85,40.9-14.78a112,112,0,0,1,19.29,0C171.7,37.72,197.71,57.62,212,92.63c3.2,7.86,4.66,16.19,5.64,24.59a126.38,126.38,0,0,1,0,15.57c-4.14,34.91-21.68,60.51-53.22,76.28-9.44,4.72-19.61,7.11-30,8.44A112,112,0,0,1,115.05,217.48ZM49.16,129.3c0,1.54,0,3.1.12,4.63A76.17,76.17,0,0,0,121,201c48.9,2.53,87.89-41,79-89C194.2,81,175.46,60,145,51.68c-30.34-8.26-56.84.31-77.82,23.87a69.54,69.54,0,0,0-18,45.15A31.75,31.75,0,0,0,49.16,129.3Z"/></g></svg>